<svg id="Capa_1" enable-background="new 0 0 512.497 512.497" height="512" viewBox="0 0 512.497 512.497" width="512" xmlns="http://www.w3.org/2000/svg"><g><g><g><path d="m477.744 198.848-30.874 47.581-65.127 7.846c-12.717-22.065-31.071-40.43-53.146-53.146v-62.411l55.426-33.59c18.945 10.955 36.782 24.532 52.991 40.741 16.199 16.197 29.776 34.034 40.73 52.979z" fill="#fe76a8"/><path d="m384.024 105.127-55.426 96.001c-21.018-12.105-45.415-19.101-71.521-19.287h-1.078l-21.187-45.772 21.187-65.184c44.274 0 88.549 11.421 128.025 34.242z" fill="#fe93bb"/><path d="m397.4 359.28c2.376-10.416 3.631-21.26 3.631-32.397l41.839-46.858 69.128 46.858c0 19.194-2.147 38.388-6.438 57.192-8.221 36.021-48.834 53.97-81.097 35.967l-.008-.005c-21.509-12.001-32.533-36.745-27.055-60.757z" fill="#fb2b3a"/><path d="m511.997 326.883h-110.966c0-26.5-7.006-51.291-19.287-72.609l96.001-55.426c22.831 39.486 34.252 83.761 34.252 128.035z" fill="#fd4755" stroke="#fe646f" stroke-miterlimit="10"/><path d="m183.462 201.252c-22.003 12.737-40.357 31.081-53.094 53.094l-65.184-.073-30.931-55.416c10.944-18.945 24.521-36.782 40.73-52.991s34.045-29.786 52.991-40.73l50.654 30.931z" fill="#fee45a"/><path d="m6.503 384.376c-4.336-18.899-6.503-38.196-6.503-57.493l58.024-40.682 52.931 40.682c0 11.217 1.273 22.137 3.681 32.623 5.543 24.129-5.587 49.006-27.264 60.968-32.253 17.799-72.631-.191-80.869-36.098z" fill="#3ec3a4"/><path d="m130.367 254.347c-12.343 21.339-19.412 46.109-19.412 72.537h-110.955c0-44.275 11.421-88.549 34.253-128.025z" fill="#6fd7a3"/><path d="m255.999 70.885v110.956c-26.428 0-51.198 7.068-72.537 19.412l-55.488-96.115c39.475-22.832 83.75-34.253 128.025-34.253z" fill="#fea713"/></g><g><path d="m145.395 115.771c-12.727 8.747-24.842 18.779-36.16 30.097-16.209 16.209-29.786 34.045-40.73 52.991-6.135 10.623-11.452 21.588-15.94 32.812l-18.313-32.812c10.944-18.945 24.521-36.782 40.73-52.991s34.045-29.786 52.991-40.73z" fill="#ffd15b"/><path d="m77.709 424.677c-5.638 1.855-11.4 2.736-17.08 2.736-24.739 0-48.078-16.696-54.12-43.041-4.343-18.893-6.509-38.191-6.509-57.489l35.455-24.853c-.798 8.26-1.202 16.561-1.202 24.853 0 19.298 2.166 38.595 6.508 57.489 4.612 20.085 19.267 34.564 36.948 40.305z" fill="#0bb494"/><path d="m60.432 213.979c-17.453 35.496-26.179 74.206-26.179 112.904h-34.253c0-44.275 11.421-88.549 34.253-128.025z" fill="#3ec3a4"/><path d="m255.999 70.885v2.291c-32.594 4.373-64.505 15.028-93.772 31.962-8.509 4.912-16.79 10.364-24.811 16.344l-9.441-16.344c39.474-22.832 83.749-34.253 128.024-34.253z" fill="#fe9901"/></g></g><g><g><path d="m389.621 193.768 56.662 15.164c5.552 1.486 8.848 7.191 7.362 12.743l-15.164 56.662c-2.397 8.956-14.425 10.543-19.063 2.516l-9.081-15.717-87.348 50.466c-6.857 3.962-15.627 1.615-19.588-5.242l-8.991-15.562c-3.962-6.857-1.615-15.627 5.242-19.588l87.348-50.466-9.081-15.717c-4.636-8.028 2.746-17.656 11.702-15.259z" fill="#685e68"/></g></g><circle cx="255.995" cy="326.881" fill="#fee45a" r="114.73"/><path d="m277.914 439.527c-7.095 1.366-14.425 2.085-21.919 2.085-63.365 0-114.731-51.366-114.731-114.731s51.366-114.731 114.731-114.731c7.494 0 14.823.719 21.919 2.085-52.882 10.233-92.819 56.775-92.819 112.646s39.937 102.413 92.819 112.646z" fill="#ffd15b"/><g fill="#fe9901"><g><path d="m234.57 314.77c-4.267 0-7.726-3.459-7.726-7.726 0-10.637-8.654-19.291-19.291-19.291s-19.291 8.654-19.291 19.291c0 4.267-3.459 7.726-7.726 7.726s-7.726-3.459-7.726-7.726c0-19.158 15.586-34.744 34.744-34.744s34.744 15.586 34.744 34.744c-.001 4.266-3.46 7.726-7.728 7.726z"/><path d="m331.455 314.77c-4.267 0-7.726-3.459-7.726-7.726 0-10.637-8.654-19.291-19.291-19.291s-19.291 8.654-19.291 19.291c0 4.267-3.459 7.726-7.726 7.726s-7.726-3.459-7.726-7.726c0-19.158 15.586-34.744 34.744-34.744s34.744 15.586 34.744 34.744c-.002 4.266-3.461 7.726-7.728 7.726z"/></g><path d="m255.995 388.311c-29.805 0-54.053-24.248-54.053-54.053 0-4.267 3.459-7.726 7.726-7.726s7.726 3.459 7.726 7.726c0 21.284 17.316 38.6 38.6 38.6s38.6-17.316 38.6-38.6c0-4.267 3.459-7.726 7.726-7.726s7.726 3.459 7.726 7.726c.002 29.805-24.246 54.053-54.051 54.053z"/></g></g></svg>