<svg id="Layer_1" enable-background="new 0 0 512 512" viewBox="0 0 512 512" xmlns="http://www.w3.org/2000/svg"><g clip-rule="evenodd" fill-rule="evenodd"><path d="m319.546 95.298c-97.453 0-176.454 79.001-176.454 176.454s79.001 176.453 176.454 176.453c27.115 0 52.797-6.123 75.751-17.05l87.548 60.523c1.757 1.215 3.977 1.205 5.723-.026s2.502-3.317 1.949-5.381l-29.294-109.326c21.847-29.372 34.777-65.772 34.777-105.193 0-97.453-79.002-176.454-176.454-176.454z" fill="#c6ea94"/><g><path d="m116.703 355.275-87.548 60.523c-1.757 1.215-3.977 1.205-5.723-.026s-2.502-3.317-1.949-5.381l29.294-109.326c-21.847-29.373-34.777-65.773-34.777-105.194 0-97.452 79.002-176.453 176.454-176.453 97.453 0 176.454 79.001 176.454 176.454s-79.001 176.453-176.454 176.453c-27.115 0-52.797-6.123-75.751-17.05z" fill="#fdcd56"/><path d="m151.357 139.938c0 3.866-3.134 7-7 7s-7-3.134-7-7c0-6.605-2.677-12.584-7.004-16.911s-10.306-7.004-16.911-7.004-12.584 2.677-16.911 7.004-7.004 10.306-7.004 16.911c0 3.866-3.134 7-7 7s-7-3.134-7-7c0-10.469 4.244-19.948 11.106-26.809 6.861-6.861 16.34-11.106 26.809-11.106s19.948 4.244 26.809 11.106c6.862 6.861 11.106 16.34 11.106 26.809zm158.023 0c0 3.866-3.134 7-7 7s-7-3.134-7-7c0-6.605-2.677-12.584-7.004-16.911s-10.306-7.004-16.911-7.004-12.584 2.677-16.911 7.004-7.004 10.306-7.004 16.911c0 3.866-3.134 7-7 7s-7-3.134-7-7c0-10.469 4.244-19.948 11.106-26.809 6.862-6.862 16.34-11.106 26.809-11.106s19.948 4.244 26.809 11.106c6.862 6.861 11.106 16.34 11.106 26.809z" fill="#636c77"/><path d="m323.746 201.066c-2.728 70.159-60.465 126.199-131.292 126.199s-128.565-56.04-131.293-126.199c-.055-1.41.415-2.643 1.393-3.66s2.193-1.534 3.604-1.534h252.592c1.411 0 2.625.517 3.604 1.534.977 1.016 1.447 2.25 1.392 3.66z" fill="#f76c82"/></g></g></svg>