<svg id="Capa_1" enable-background="new 0 0 511.999 511.999" height="512" viewBox="0 0 511.999 511.999" width="512" xmlns="http://www.w3.org/2000/svg"><g><path d="m195.878 394.08 8.499-7.211v-66.189c-4.217-5.327-2.627-3.506-7.469-8.499h-62.583l9.014-38.889-24.209-28.845h-37.344l-16.483 28.072 4.893 32.193v7.984h-60.779l-4.131 3.646v174.913c0 11.457 9.288 20.745 20.745 20.745h174.912l3.434-6.145v-70.653l-43.525 6.524-23.61-27.555 26.7-27.302z" fill="#ffe02f"/><g><path d="m65.925 500.948v-188.252h-56.508l-4.131 3.646v174.913c0 11.457 9.288 20.745 20.745 20.745h46.763c-4.059-2.034-6.869-6.226-6.869-11.052z" fill="#fbc700"/></g><path d="m506.449 176.609-46.844-161.633c-3.189-11.004-14.695-17.34-25.7-14.15l-158.319 45.884c-5.346 1.549-8.424 7.139-6.874 12.485l15.165 52.326c1.115 3.846 5.35 5.812 9.028 4.229 2.559-1.101 5.046-2.381 7.444-3.835l10.229-6.202c18.306-11.1 42.158-1.798 48.117 18.764 5.959 20.562-9.222 41.176-30.626 41.585l-11.961.229c-2.804.054-5.591.302-8.341.74-3.955.629-6.483 4.555-5.368 8.401l16.126 55.641c1.019 3.515 4.694 5.539 8.21 4.52l55.642-16.126c3.846-1.115 7.772 1.414 8.401 5.368.438 2.751.686 5.538.74 8.342l.229 11.961c.409 21.404 21.024 36.585 41.585 30.626h.001c20.562-5.959 29.863-29.81 18.764-48.116l-6.202-10.23c-1.454-2.398-2.735-4.886-3.836-7.444-1.583-3.678.383-7.914 4.229-9.028l55.641-16.126c3.515-1.02 5.539-4.696 4.52-8.211z" fill="#73d578"/><g fill="#00c63a"><path d="m331.634 101.271c-.46-.617-.826-1.322-1.055-2.112l-15.165-54.387c-1.148-3.962.249-8.054 3.223-10.539l-43.05 12.477c-5.346 1.549-8.424 7.139-6.874 12.485l15.165 52.326c1.114 3.846 5.35 5.812 9.028 4.229 2.558-1.101 5.046-2.381 7.444-3.835l10.23-6.202c6.66-4.039 14.053-5.365 21.054-4.442z"/><path d="m366.257 218.711-17.156-57.701c-.301-1.04-.329-2.083-.141-3.068-5.519 4.883-12.752 7.964-20.889 8.12l-11.961.229c-2.804.054-5.591.302-8.341.74-3.955.629-6.483 4.555-5.368 8.401l16.126 55.641c1.019 3.515 4.694 5.539 8.209 4.52l43.418-12.583c-1.825-.734-3.307-2.264-3.897-4.299z"/></g><path d="m386.522 316.342h-54.48c-4.004 0-7.071 3.521-6.575 7.494.345 2.764.883 5.51 1.612 8.218l3.109 11.552c5.564 20.672-10.009 40.991-31.416 40.991h-.001c-21.408 0-36.981-20.32-31.416-40.991l3.11-11.552c.729-2.708 1.266-5.454 1.611-8.218.496-3.974-2.571-7.494-6.575-7.494h-64.558v64.558c0 4.004-3.521 7.071-7.494 6.575-2.764-.345-5.51-.882-8.218-1.611l-11.551-3.11c-20.673-5.565-40.992 10.008-40.992 31.416 0 21.408 20.32 36.981 40.992 31.416l11.552-3.109c2.708-.729 5.454-1.266 8.218-1.611 3.974-.496 7.494 2.571 7.494 6.575v64.558h174.911c11.457 0 20.746-9.288 20.746-20.746v-164.833c-.001-5.566-4.513-10.078-10.079-10.078z" fill="#ff76aa"/><path d="m228.207 187.097-11.552 3.11c-2.708.729-5.454 1.266-8.218 1.611-3.974.496-7.494-2.571-7.494-6.575v-54.48c0-5.566-4.512-10.078-10.078-10.078h-164.834c-11.457 0-20.745 9.288-20.745 20.745v174.912h64.558c4.004 0 7.072-3.521 6.575-7.494-.346-2.764-.882-5.51-1.611-8.217l-3.11-11.552c-5.564-20.673 10.009-40.992 31.416-40.992 21.408 0 36.982 20.32 31.417 40.992l-3.109 11.552c-.729 2.708-1.266 5.453-1.612 8.217-.496 3.973 2.571 7.494 6.575 7.494h64.558v-64.558c0-4.004 3.521-7.071 7.494-6.575 2.764.345 5.51.882 8.218 1.611l11.552 3.109c20.672 5.565 40.992-10.008 40.992-31.416 0-21.408-20.32-36.981-40.992-31.416z" fill="#60b9fe"/><path d="m65.925 131.736c0-4.826 2.81-9.018 6.868-11.051h-46.762c-11.457 0-20.745 9.288-20.745 20.745v174.912h60.639z" fill="#0094fd"/></g></svg>