<svg id="Capa_1" enable-background="new 0 0 497 497" height="512" viewBox="0 0 497 497" width="512" xmlns="http://www.w3.org/2000/svg"><g id="_x3C_Group_x3E__69_"><g><path d="m467 267.422h-437c-6.185 0-11.735-3.796-13.979-9.559-2.243-5.764 4.28-12.313 8.838-16.494l218.5-200.473c5.736-5.264 9.545-5.264 15.281 0l218.5 200.473c4.558 4.181 6.081 10.73 3.838 16.494-2.243 5.763-7.793 9.559-13.978 9.559zm-398.464-30h369.928l-189.964-165.116z" fill="#a4ace3"/></g><g fill="#8a94db"><path d="m258.5 81.481 169.964 155.941h20l-179.964-165.116z"/><path d="m36.021 257.864c-2.243-5.764-.72-12.313 3.838-16.494l218.5-200.473c.045-.042.095-.076.141-.117-5.739-5.139-14.45-5.105-20.141.117l-218.5 200.473c-4.558 4.181-6.081 10.73-3.838 16.494 2.243 5.763 7.794 9.559 13.979 9.559h20c-6.185-.001-11.735-3.797-13.979-9.559z"/></g><path d="m487 477.822h-473.287c-5.523 0-10-4.477-10-10v-235.4c0-5.523 4.477-10 10-10h473.287c5.523 0 10 4.477 10 10v235.4c0 5.523-4.477 10-10 10z" fill="#e27f86"/><path d="m25 467.422c-5.523 0-10-4.477-10-10v-235h-5c-5.523 0-10 4.477-10 10v240c0 5.523 4.477 10 10 10h477c5.523 0 10-4.477 10-10v-5z" fill="#df646e"/><path d="m464 439.524h-417.968c-1.657 0-3-1.343-3-3v-181.102c0-1.657 1.343-3 3-3h417.968c1.657 0 3 1.343 3 3v181.102c0 1.657-1.343 3-3 3z" fill="#f5fcff"/><path d="m53 432.422c-1.657 0-3-1.343-3-3v-177h-17c-1.657 0-3 1.343-3 3v194c0 1.657 1.343 3 3 3h431c1.657 0 3-1.343 3-3v-17z" fill="#e6f7fe"/><path d="m291 57.078c0-23.472-19.028-42.5-42.5-42.5-6.715 0-13.066 1.557-18.712 4.33-14.09 6.92-21.788 21.412-21.788 38.17 0 23.472 17.028 40.5 40.5 40.5 16.71 0 31.167-7.643 38.11-21.668 2.811-5.676 4.39-12.07 4.39-18.832z" fill="#e27f86"/><path d="m268.5 79.578c-23.472 0-42.5-19.028-42.5-42.5 0-6.57 1.493-12.791 4.155-18.345-14.288 6.847-24.155 21.443-24.155 38.345 0 23.472 19.028 42.5 42.5 42.5 16.902 0 31.498-9.867 38.345-24.155-5.554 2.662-11.775 4.155-18.345 4.155z" fill="#df646e"/><g><g><g><path d="m118.125 351.395c-1.983 0-3.886-.785-5.291-2.185-1.414-1.408-2.209-3.32-2.209-5.315v-52.575c0-4.143 3.357-7.5 7.5-7.5h33.112c18.599 0 33.729 15.131 33.729 33.729s-15.131 33.73-33.729 33.73c-7.086 0-32.82.114-33.079.115-.011.001-.022.001-.033.001zm7.5-52.575v37.543c8.255-.034 20.943-.083 25.612-.083 10.327 0 18.729-8.402 18.729-18.73 0-10.327-8.402-18.729-18.729-18.729h-25.612z" fill="#df646e"/></g><g><path d="m118.125 412.813c-1.983 0-3.886-.785-5.291-2.185-1.414-1.408-2.209-3.32-2.209-5.315v-61.503c0-4.143 3.357-7.5 7.5-7.5h38.895c21.055 0 38.184 17.129 38.184 38.184s-17.129 38.184-38.184 38.184c-8.292 0-38.557.135-38.861.136-.012-.001-.023-.001-.034-.001zm7.5-61.503v46.471c9.614-.04 25.681-.104 31.395-.104 12.783 0 23.184-10.4 23.184-23.184s-10.4-23.184-23.184-23.184h-31.395z" fill="#df646e"/></g></g><g><g><path d="m309.297 351.395c-1.983 0-3.886-.785-5.291-2.185-1.414-1.408-2.209-3.32-2.209-5.315v-52.575c0-4.143 3.357-7.5 7.5-7.5h33.112c18.599 0 33.729 15.131 33.729 33.729s-15.131 33.73-33.729 33.73c-7.086 0-32.82.114-33.079.115-.011.001-.022.001-.033.001zm7.5-52.575v37.543c8.255-.034 20.943-.083 25.612-.083 10.327 0 18.729-8.402 18.729-18.73 0-10.327-8.402-18.729-18.729-18.729h-25.612z" fill="#df646e"/></g><g><path d="m309.297 412.813c-1.983 0-3.886-.785-5.291-2.185-1.414-1.408-2.209-3.32-2.209-5.315v-61.503c0-4.143 3.357-7.5 7.5-7.5h38.895c21.055 0 38.184 17.129 38.184 38.184s-17.129 38.184-38.184 38.184c-8.291 0-38.557.135-38.861.136-.012-.001-.023-.001-.034-.001zm7.5-61.503v46.471c9.614-.04 25.681-.104 31.395-.104 12.783 0 23.184-10.4 23.184-23.184s-10.4-23.184-23.184-23.184h-31.395z" fill="#df646e"/></g></g><g><g><path d="m279.3 412.813c-2.08 0-4.15-.86-5.633-2.545l-47.885-54.407c-2.736-3.109-2.435-7.849.675-10.585 3.108-2.735 7.849-2.435 10.585.675l47.885 54.407c2.736 3.109 2.435 7.849-.675 10.585-1.425 1.254-3.192 1.87-4.952 1.87z" fill="#df646e"/></g><g><path d="m217.666 412.813c-4.143 0-7.5-3.357-7.5-7.5v-113.993c0-4.143 3.357-7.5 7.5-7.5s7.5 3.357 7.5 7.5v113.993c0 4.143-3.357 7.5-7.5 7.5z" fill="#df646e"/></g><g><path d="m217.914 358.202c-1.975 0-3.87-.779-5.275-2.169-1.415-1.4-2.216-3.306-2.225-5.297l-.136-29.757-.075-29.641c-.005-1.992.783-3.904 2.19-5.315 1.406-1.41 3.317-2.203 5.31-2.203h30.292c21.396 0 38.802 16.654 38.802 37.125 0 20.472-17.406 37.126-38.802 37.126-8.29 0-29.819.13-30.036.131-.015 0-.03 0-.045 0zm7.309-59.382.056 22.106.102 22.233c7.104-.039 17.426-.089 22.615-.089 12.902 0 23.802-10.133 23.802-22.126s-10.899-22.125-23.802-22.125h-22.773z" fill="#df646e"/></g></g></g></g></svg>